<?xml version="1.0" encoding="UTF-8"?>
<svg width="21px" height="18px" viewBox="0 0 21 18" version="1.1" xmlns="http://www.w3.org/2000/svg" xmlns:xlink="http://www.w3.org/1999/xlink">
    <!-- Generator: Sketch 63.1 (92452) - https://sketch.com -->
    <title>icon/discover</title>
    <desc>Created with Sketch.</desc>
    <g id="Symbols" stroke="none" stroke-width="1" fill="none" fill-rule="evenodd">
        <g id="BottomNav" transform="translate(-177.000000, -10.000000)" fill="#8D819D">
            <g id="bottom_menu">
                <g id="icon/discover" transform="translate(177.000000, 10.000000)">
                    <path d="M17.371868,3.20618212 C15.7291892,1.49066806 13.1133924,1.33940574 11.2998543,2.85474629 L10.2139864,3.76232025 L9.12811846,2.85474629 C7.31458029,1.33940574 4.69878348,1.49066806 3.05610471,3.20618212 C1.38307022,4.95339786 1.28159534,7.71506753 2.84968573,9.49760801 C4.21395907,11.0500848 5.80373213,12.7692219 7.23478808,14.0943524 C7.95205066,14.7582762 8.60946909,15.3053568 9.16541264,15.6812482 C9.76558883,16.086124 10.1012365,16.1884751 10.2139864,16.1884751 C10.3267362,16.1884751 10.6623839,16.086124 11.2625601,15.6812482 C11.8185036,15.3053568 12.4759221,14.7582762 13.1931847,14.0943524 C14.6242406,12.7692219 16.2140137,11.0500848 17.578287,9.49760801 C19.1455101,7.71506753 19.0449025,4.95339786 17.371868,3.20618212 Z M10.215721,1.43994537 C12.7205025,-0.6514601 16.3302327,-0.443134739 18.5982396,1.92452827 C20.8940003,4.3229872 21.0848077,8.18787552 18.8558297,10.7231046 C17.4776794,12.2909794 15.8410718,14.0635564 14.3441006,15.4502787 C13.5973495,16.1422812 12.8653427,16.7554824 12.2035878,17.2029291 C11.5869328,17.6195798 10.8766086,18 10.2139864,18 C9.55136409,18 8.84103996,17.6195798 8.22438494,17.2029291 C7.56262998,16.7554824 6.83062318,16.1422812 6.08387217,15.4502787 C4.58690092,14.0635564 2.9502933,12.2909794 1.57214306,10.7231046 C-0.656834988,8.18787552 -0.466027529,4.3229872 1.82973313,1.92452827 C4.09773998,-0.443134739 7.70747019,-0.6514601 10.2122518,1.43994537 L10.2139864,1.44175689 L10.215721,1.43994537 L10.215721,1.43994537 Z" id="Fill-1161"></path>
                </g>
            </g>
        </g>
    </g>
</svg>