<?xml version="1.0" encoding="UTF-8"?>
<svg width="20px" height="20px" viewBox="0 0 20 20" version="1.1" xmlns="http://www.w3.org/2000/svg" xmlns:xlink="http://www.w3.org/1999/xlink">
    <!-- Generator: Sketch 63.1 (92452) - https://sketch.com -->
    <title>icon/lp</title>
    <desc>Created with Sketch.</desc>
    <g id="Symbols" stroke="none" stroke-width="1" fill="none" fill-rule="evenodd">
        <g id="BottomNav" transform="translate(-53.000000, -10.000000)" fill="#8D819D">
            <g id="bottom_menu">
                <g id="icon/lp" transform="translate(53.000000, 10.000000)">
                    <path d="M10,0 C12.671051,0 15.1823425,1.04019164 17.0710754,2.92892457 C18.9598084,4.81765746 20,7.32894898 20,10 C20,12.671051 18.9598084,15.1823425 17.0710754,17.0710754 C15.1823425,18.9598084 12.671051,20 10,20 C7.32894898,20 4.81765746,18.9598084 2.92892457,17.0710754 C1.04019164,15.1823425 -1.97372982e-15,12.671051 -1.97372982e-15,10 C-1.97372982e-15,7.32894898 1.04019164,4.81765746 2.92892457,2.92892457 C4.81765746,1.04019164 7.32894898,0 10,0 Z M10,1.171875 C7.64190672,1.171875 5.42495727,2.09014891 3.75762938,3.75762938 C2.09014891,5.42495727 1.171875,7.64190672 1.171875,10 C1.171875,12.3580933 2.09014891,14.5750427 3.75762938,16.2423706 C5.42495727,17.9098511 7.64190672,18.828125 10,18.828125 C12.3580933,18.828125 14.5750427,17.9098511 16.2423706,16.2423706 C17.9098511,14.5750427 18.828125,12.3580933 18.828125,10 C18.828125,7.64190672 17.9098511,5.42495727 16.2423706,3.75762938 C14.5750427,2.09014891 12.3580933,1.171875 10,1.171875 Z M17.1918403,9.57465278 C17.5154792,9.57465278 17.7777778,9.83695137 17.7777778,10.1605903 C17.7777778,14.3607246 14.3607246,17.7777778 10.1605903,17.7777778 C9.83695137,17.7777778 9.57465278,17.5154792 9.57465278,17.1918403 C9.57465278,16.8682014 9.83695137,16.6059028 10.1605903,16.6059028 C13.7145148,16.6059028 16.6059028,13.7145148 16.6059028,10.1605903 C16.6059028,9.83695137 16.8682014,9.57465278 17.1918403,9.57465278 Z M14.8480903,9.57465278 C15.1717292,9.57465278 15.4340278,9.83695137 15.4340278,10.1605903 C15.4340278,13.0683051 13.0683051,15.4340278 10.1605903,15.4340278 C9.83695137,15.4340278 9.57465278,15.1717292 9.57465278,14.8480903 C9.57465278,14.5244514 9.83695137,14.2621528 10.1605903,14.2621528 C12.422248,14.2621528 14.2621528,12.422248 14.2621528,10.1605903 C14.2621528,9.83695137 14.5244514,9.57465278 14.8480903,9.57465278 Z M10,7.0703125 C11.615448,7.0703125 12.9296875,8.38455199 12.9296875,10 C12.9296875,11.615448 11.615448,12.9296875 10,12.9296875 C8.38455199,12.9296875 7.0703125,11.615448 7.0703125,10 C7.0703125,8.38455199 8.38455199,7.0703125 10,7.0703125 Z M10,8.2421875 C9.03076172,8.2421875 8.2421875,9.03076172 8.2421875,10 C8.2421875,10.9692383 9.03076172,11.7578125 10,11.7578125 C10.9692383,11.7578125 11.7578125,10.9692383 11.7578125,10 C11.7578125,9.03076172 10.9692383,8.2421875 10,8.2421875 Z M10,9.4140625 C10.3236389,9.4140625 10.5859375,9.67636109 10.5859375,10 C10.5859375,10.3236389 10.3236389,10.5859375 10,10.5859375 C9.67636109,10.5859375 9.4140625,10.3236389 9.4140625,10 C9.4140625,9.67636109 9.67636109,9.4140625 10,9.4140625 Z M10,4.7265625 C10.3236389,4.7265625 10.5859375,4.98886109 10.5859375,5.3125 C10.5859375,5.63613891 10.3236389,5.8984375 10,5.8984375 C7.73834227,5.8984375 5.8984375,7.73834227 5.8984375,10 C5.8984375,10.3236389 5.63613891,10.5859375 5.3125,10.5859375 C4.98886109,10.5859375 4.7265625,10.3236389 4.7265625,10 C4.7265625,7.09228516 7.09228516,4.7265625 10,4.7265625 Z M10,2.3828125 C10.3236389,2.3828125 10.5859375,2.64511109 10.5859375,2.96875 C10.5859375,3.29238891 10.3236389,3.5546875 10,3.5546875 C6.44607543,3.5546875 3.5546875,6.44607543 3.5546875,10 C3.5546875,10.3236389 3.29238891,10.5859375 2.96875,10.5859375 C2.64511109,10.5859375 2.3828125,10.3236389 2.3828125,10 C2.3828125,5.7998657 5.7998657,2.3828125 10,2.3828125 Z" id="Combined-Shape"></path>
                </g>
            </g>
        </g>
    </g>
</svg>