<?xml version="1.0" encoding="UTF-8"?>
<svg width="20px" height="20px" viewBox="0 0 20 20" version="1.1" xmlns="http://www.w3.org/2000/svg" xmlns:xlink="http://www.w3.org/1999/xlink">
    <!-- Generator: Sketch 63.1 (92452) - https://sketch.com -->
    <title>icon/user</title>
    <desc>Created with Sketch.</desc>
    <g id="Symbols" stroke="none" stroke-width="1" fill="none" fill-rule="evenodd">
        <g id="BottomNav" transform="translate(-303.000000, -10.000000)" fill="#8D819D">
            <g id="bottom_menu">
                <g id="icon/user" transform="translate(303.000000, 10.000000)">
                    <path d="M10,0 C15.5228475,0 20,4.4771525 20,10 C20,15.5228475 15.5228475,20 10,20 C4.4771525,20 0,15.5228475 0,10 C0,4.4771525 4.4771525,0 10,0 Z M10,5.64102564 C8.47337065,5.64102564 7.17948718,6.89151349 7.17948718,8.63268607 C7.17948718,9.64584659 7.50760771,10.3058918 8.20563237,10.965384 C8.4565561,11.1731927 8.65181341,11.4132685 8.79149079,11.6780734 C9.07086555,12.207721 9.10271474,12.7546603 8.99449864,13.2545621 C8.97234894,13.3568821 8.94799044,13.4383061 8.94790382,13.4293318 C8.7056805,14.3289156 8.0792759,14.7148883 6.70454145,15.1844592 L6.70454145,15.1844592 L6.24765472,15.3387371 C6.07009489,15.3989834 5.93145909,15.4475393 5.79889141,15.4964691 C5.1468821,15.7371211 4.67903371,15.9829422 4.34045953,16.2894915 C5.84015708,17.640288 7.82417188,18.4615385 10,18.4615385 C12.1753454,18.4615385 14.1589625,17.6406524 15.657981,16.2917507 C15.3232147,15.9933067 14.8579772,15.756217 14.1980927,15.5186993 C14.0832915,15.477378 13.9631266,15.4359055 13.8107056,15.3846312 L13.8107056,15.3846312 L13.4153403,15.2522645 C11.9841812,14.7694221 11.3399298,14.3791082 11.0626997,13.4652122 C11.0451891,13.4108595 11.0249651,13.333441 11.0064807,13.2359142 C10.9202581,12.7809892 10.9397409,12.2879866 11.1478397,11.8027481 C11.2832043,11.487109 11.4912424,11.2038728 11.7515225,10.987047 C12.4846272,10.3247032 12.8205128,9.64682033 12.8205128,8.63268607 C12.8205128,6.92168773 11.5074417,5.64102564 10,5.64102564 Z M10,1.53846154 C5.32682135,1.53846154 1.53846154,5.32682135 1.53846154,10 C1.53846154,11.9421002 2.1927507,13.731383 3.29292519,15.1594446 C3.79460563,14.6979212 4.43608274,14.3595634 5.26618331,14.0531792 C5.41349377,13.9988079 5.56400331,13.9460933 5.75333233,13.8818537 L5.75333233,13.8818537 L6.20725542,13.7285847 C7.09330844,13.4259337 7.40772825,13.2321972 7.4836426,12.9625454 C7.48382594,12.9594195 7.48685456,12.9475889 7.49086487,12.9290634 C7.52904866,12.7526742 7.51789231,12.5610886 7.43072763,12.395839 C7.38569391,12.3104626 7.31948357,12.2290547 7.18762171,12.1178237 C6.16282146,11.1527419 5.64102564,10.1031007 5.64102564,8.63268607 C5.64102564,6.0298791 7.63522415,4.1025641 10,4.1025641 C12.3486244,4.1025641 14.3589744,6.06329488 14.3589744,8.63268607 C14.3589744,10.1074622 13.8232501,11.1886586 12.7605494,12.1480175 C12.6661024,12.2269657 12.6030884,12.312757 12.5617618,12.4091212 C12.4916945,12.5725019 12.4839131,12.769407 12.5180326,12.9494276 C12.5240096,12.980963 12.5282469,12.9971838 12.5309531,13.005947 C12.609816,13.2658115 12.9488832,13.4712323 13.9071485,13.7945305 L13.9071485,13.7945305 L14.3012308,13.9264649 C14.4630006,13.9808841 14.5926367,14.0256254 14.7191206,14.0711518 C15.5634111,14.3750443 16.2049619,14.7042891 16.7069491,15.1595184 C17.8069464,13.7322114 18.4615385,11.9425498 18.4615385,10 C18.4615385,5.32682135 14.6731787,1.53846154 10,1.53846154 Z" id="Shape"></path>
                </g>
            </g>
        </g>
    </g>
</svg>